<svg width="491" height="347" viewBox="0 0 491 347" fill="none" xmlns="http://www.w3.org/2000/svg">
<path opacity="0.1" d="M164 347C187.748 347 207 343.866 207 340C207 336.134 187.748 333 164 333C140.252 333 121 336.134 121 340C121 343.866 140.252 347 164 347Z" fill="#298CF4"/>
<path opacity="0.1" d="M422.5 344C460.331 344 491 339.523 491 334C491 328.477 460.331 324 422.5 324C384.668 324 354 328.477 354 334C354 339.523 384.668 344 422.5 344Z" fill="#298CF4"/>
<path opacity="0.1" d="M6.92382 150H52V211.499H10.2238C10.1128 212.131 10.0062 212.766 9.8907 213.402H52V263C51.9245 262.978 51.8579 262.951 51.7868 262.924C50.5965 262.453 49.4151 261.955 48.2337 261.422L47.4786 261.079C46.2942 260.519 45.1098 259.926 43.9255 259.301C43.5124 259.083 43.0994 258.856 42.6907 258.625C36.1156 254.938 30.1423 250.267 24.9783 244.772C24.8273 244.625 24.6851 244.47 24.5341 244.327C23.8146 243.545 23.1084 242.754 22.4244 241.944L21.6694 241.055C20.8611 240.064 20.0794 239.046 19.3199 238.014C19.2088 237.863 19.1022 237.712 18.9868 237.57C15.898 233.283 13.3333 228.641 11.3475 223.743C11.2853 223.596 11.232 223.436 11.1743 223.299C10.5643 221.728 10.0239 220.142 9.55315 218.542C9.34885 217.87 9.15342 217.208 8.98465 216.51C8.92247 216.305 8.86917 216.105 8.82031 215.905C6.29758 206.049 6 195.81 6 185.642C6 184.455 6 183.264 6 182.086C6 177.973 6.04886 173.834 6.11992 169.7C6.11992 168.628 6.16433 167.561 6.18654 166.485C6.24872 163.755 6.33755 161.026 6.45303 158.296C6.47968 157.536 6.51521 156.78 6.55518 156.024C6.55518 155.588 6.57739 155.153 6.6218 154.717C6.7284 153.134 6.81723 151.565 6.92382 150Z" fill="#298CF4"/>
<path opacity="0.1" d="M52 82H27C31.0639 75.7594 35.5042 69.7625 40.2971 64.0415C44.011 59.5651 47.9314 55.2032 52 51V82Z" fill="white"/>
<path opacity="0.1" d="M52 84V148H7C7 147.815 7.03114 147.626 7.04448 147.441C7.08451 146.935 7.12454 146.429 7.16902 145.928C7.21795 145.338 7.27132 144.744 7.32915 144.168C7.38697 143.591 7.44924 142.887 7.51596 142.249C7.58268 141.611 7.64495 140.965 7.72057 140.327C7.79618 139.689 7.8629 139.051 7.94297 138.417C8.02303 137.784 8.0942 137.141 8.17871 136.508C8.24543 135.98 8.31659 135.456 8.38776 134.928C8.49006 134.185 8.59682 133.437 8.71246 132.697C8.71246 132.587 8.7436 132.473 8.76139 132.367C9.57323 126.956 10.6794 121.592 12.0751 116.299C13.5361 110.747 15.4017 105.306 17.6573 100.02C20.0546 94.49 22.8615 89.1428 26.0551 84.022L52 84Z" fill="white"/>
<path opacity="0.1" d="M63 149.923V211.249H159.098V149.923H63ZM63 213.142V265.806C63.5497 265.922 64.095 266.032 64.6358 266.126C65.3717 266.267 66.1032 266.396 66.8524 266.507C66.9943 266.529 67.1406 266.551 67.2957 266.564C67.5883 266.613 67.8898 266.653 68.1824 266.693C68.9227 266.795 69.6586 266.879 70.399 266.946C70.7492 266.981 71.1038 267.012 71.4585 267.039L72.3141 267.105C72.7796 267.141 73.2406 267.167 73.6972 267.181C73.9809 267.181 74.2647 267.207 74.5573 267.216C74.7789 267.216 75.0006 267.216 75.2311 267.216C75.4616 267.216 75.7897 267.216 76.069 267.216C76.4502 267.216 76.8315 267.216 77.2083 267.216H77.7181C78.0994 267.216 78.4806 267.216 78.8574 267.181H78.884C79.1456 267.181 79.4116 267.181 79.6776 267.145C79.7514 267.15 79.8254 267.15 79.8992 267.145C80.1209 267.145 80.3425 267.145 80.5553 267.114H80.7105L82.1956 266.999C82.6833 266.955 83.1753 266.897 83.6718 266.844L84.6826 266.724C88.7947 266.148 92.8611 265.283 96.8517 264.135C105.816 261.635 114.584 258.137 123.544 255.575C135.128 252.272 147.926 250.65 159.12 254.688V213.142H63ZM159.098 81.6501V0.00724968C148.577 -0.106734 138.084 1.12378 127.875 3.66892C103.541 9.78205 81.708 23.0412 63 39.9753V81.6457H67.8233V83.5386H63V148.03H159.098V83.543H87.6262V81.6501H159.098ZM282.53 54.0723C276.51 53.8595 270.525 51.9533 265.112 49.0098C254.761 43.3799 246.493 34.6867 237.254 27.3501C218.059 12.0695 194.253 2.84881 169.83 0.561377V81.6501H307.015L307.356 81.291L282.53 54.0723ZM295.027 51.8558L308.278 66.3961V48.0434C303.841 48.5931 299.953 49.9008 295.045 51.8381L295.027 51.8558ZM308.278 278.884V213.142H280.043C279.968 212.863 279.893 212.579 279.804 212.295C279.888 212.579 279.959 212.863 280.039 213.142H169.848V260.686C170.894 261.462 171.927 262.278 172.951 263.107C174.055 263.993 175.146 264.929 176.241 265.846L177.345 266.759C177.872 267.203 178.404 267.646 178.941 268.063C180.005 268.926 181.079 269.777 182.163 270.616C182.7 271.06 183.25 271.458 183.795 271.875C192.452 278.494 201.583 284.466 211.117 289.745C213.253 290.927 215.409 292.081 217.585 293.207C219.034 293.947 220.493 294.683 221.956 295.397C224.154 296.47 226.371 297.504 228.605 298.5C249.205 307.746 270.987 314.091 293.33 317.353C298.292 318.086 303.273 318.663 308.274 319.082V278.879H308.717L308.278 278.884ZM169.848 83.543V148.03H308.296V83.543H169.848ZM169.848 149.923V211.249H308.296V149.923H169.848ZM319.042 47.9636V68.4353L335.954 49.8787C330.351 48.9743 324.713 48.3286 319.042 47.9414V47.9636ZM319.042 149.945V211.249H453.699V149.923L319.042 149.945ZM453.207 283.751L453.682 213.142H319.042V319.787C327.715 320.152 336.402 320.048 345.065 319.477H345.215C349.353 319.217 353.471 318.839 357.571 318.342H357.664C379.533 315.797 400.917 310.091 421.147 301.404L453.207 283.751ZM479.664 160.021C479.159 158.829 478.631 157.645 478.095 156.475C477.093 154.258 476.034 152.104 474.943 149.95H464.436V211.249H491C490.987 193.89 486.593 176.158 479.678 159.999L479.664 160.021ZM464.436 213.164V273.897C471.92 266.724 478.241 258.518 482.794 249.138C488.269 237.843 490.774 225.612 490.978 213.155L464.436 213.164ZM464.436 132.076V148.034H473.959C471.078 142.541 467.904 137.206 464.45 132.053L464.436 132.076ZM373.113 59.9948C372.413 59.7288 371.712 59.4584 371.008 59.1969C363.573 56.4516 355.977 54.1687 348.261 52.3612L322.38 80.7635L321.884 81.291L322.216 81.6545H414.328C401.5 72.8242 387.669 65.5461 373.127 59.9726L373.113 59.9948ZM417.028 83.5651H320.93L319.042 85.294V148.03H335.595H335.622H453.717V117.642C443.034 104.722 430.704 93.2582 417.041 83.543L417.028 83.5651Z" fill="white"/>
<path opacity="0.1" d="M52 116V148H7C7 147.814 7.03114 147.623 7.04448 147.436C7.08451 146.926 7.12454 146.415 7.16902 145.909C7.21795 145.314 7.27132 144.715 7.32915 144.134C7.38697 143.552 7.44924 142.842 7.51596 142.198C7.58268 141.555 7.64495 140.902 7.72057 140.259C7.79618 139.615 7.8629 138.971 7.94297 138.332C8.02303 137.693 8.0942 137.045 8.17871 136.406C8.24543 135.873 8.31659 135.345 8.38776 134.812C8.49006 134.062 8.59682 133.307 8.71246 132.562C8.71246 132.451 8.7436 132.335 8.76139 132.229C9.57323 126.769 10.6794 121.358 12.0751 116.018L52 116Z" fill="#298CF4"/>
<path opacity="0.1" d="M6.92382 150H52V211.499H10.2238C10.1128 212.131 10.0062 212.766 9.8907 213.402H52V263C51.9245 262.978 51.8579 262.951 51.7868 262.924C50.5965 262.453 49.4151 261.955 48.2337 261.422L47.4786 261.079C46.2942 260.519 45.1098 259.926 43.9255 259.301C43.5124 259.083 43.0994 258.856 42.6907 258.625C36.1156 254.938 30.1423 250.267 24.9783 244.772C24.8273 244.625 24.6851 244.47 24.5341 244.327C23.8146 243.545 23.1084 242.754 22.4244 241.944L21.6694 241.055C20.8611 240.064 20.0794 239.046 19.3199 238.014C19.2088 237.863 19.1022 237.712 18.9868 237.57C15.898 233.283 13.3333 228.641 11.3475 223.743C11.2853 223.596 11.232 223.436 11.1743 223.299C10.5643 221.728 10.0239 220.142 9.55315 218.542C9.34885 217.87 9.15342 217.208 8.98465 216.51C8.92247 216.305 8.86917 216.105 8.82031 215.905C6.29758 206.049 6 195.81 6 185.642C6 184.455 6 183.264 6 182.086C6 177.973 6.04886 173.834 6.11992 169.7C6.11992 168.628 6.16433 167.561 6.18654 166.485C6.24872 163.755 6.33755 161.026 6.45303 158.296C6.47968 157.536 6.51521 156.78 6.55518 156.024C6.55518 155.588 6.57739 155.153 6.6218 154.717C6.7284 153.134 6.81723 151.565 6.92382 150Z" fill="white"/>
<path opacity="0.1" d="M97 92.7173V148H63V92.7173H67.8476V74H87.7459V92.7173H97Z" fill="#298CF4"/>
<path opacity="0.1" d="M97 150H63V211H97V150Z" fill="#298CF4"/>
<path opacity="0.1" d="M63 213H97V264.87C92.9894 266.036 88.9024 266.915 84.7696 267.499L83.7538 267.626C83.2548 267.684 82.7602 267.734 82.2701 267.784C81.78 267.833 81.2721 267.869 80.7775 267.901H80.6215C80.4077 267.901 80.176 267.928 79.9666 267.932H79.7394C79.472 267.932 79.2047 267.959 78.9374 267.968C78.5586 267.991 78.1799 267.995 77.7923 268C77.6274 268 77.4715 268 77.3066 268C76.9235 268 76.5448 268 76.1616 268H75.3195C75.0923 268 74.8739 268 74.6378 268L73.7779 267.968C73.3323 267.968 72.8511 267.919 72.3878 267.887L71.5323 267.824L70.4674 267.725C69.7189 267.657 68.9748 267.572 68.2397 267.468L67.3486 267.341L66.903 267.278C66.159 267.161 65.4238 267.035 64.6753 266.89C64.1272 266.796 63.5837 266.678 63.0312 266.566L63 213Z" fill="#298CF4"/>
<path opacity="0.1" d="M308 86H280V148H308V86Z" fill="#298CF4"/>
<path opacity="0.1" d="M308 150V211H170V184.689H243.505V200.21H280.193V150H308Z" fill="#298CF4"/>
<path opacity="0.1" d="M309 279.082H308.556V319C303.558 318.581 298.574 318.01 293.605 317.289C271.234 314.042 249.425 307.732 228.803 298.542C222.849 295.885 217.017 292.985 211.305 289.841C201.765 284.601 192.624 278.674 183.958 272.11C181.781 270.456 179.632 268.764 177.511 267.034C176.043 265.833 174.583 264.601 173.106 263.405C172.081 262.582 171.047 261.773 170 260.999V213.84H280.273C280.197 213.559 280.122 213.277 280.042 213C280.126 213.277 280.206 213.559 280.282 213.84H308.556V279.055C308.707 279.06 308.854 279.073 309 279.082Z" fill="#298CF4"/>
<path opacity="0.1" d="M381 82H363V76.2194H371.069V59C371.769 59.2632 372.465 59.5339 373.159 59.8122V76.2194H381V82Z" fill="#298CF4"/>
<path opacity="0.1" d="M425 147.978H335.595C335.595 147.978 335.595 147.978 335.626 148L335.586 147.978H319V86.6874H323.699V131.99H345.176V105.16H362.916V84H381.128V105.178H398.869V132.008H425V147.978Z" fill="#298CF4"/>
<path opacity="0.1" d="M319 150V211.299H425.062V150H319ZM453.853 283.453L454 234.934H425.062V213.222H319V319.787C327.696 320.151 336.405 320.048 345.089 319.477H345.24C349.388 319.217 353.517 318.839 357.627 318.343H357.72C379.645 315.799 401.083 310.096 421.364 301.412" fill="#298CF4"/>
<path opacity="0.1" d="M465.894 213H491C490.779 225.506 488.236 237.79 482.67 249.134C478.039 258.56 471.603 266.801 464 274V234.82H465.894V213Z" fill="#298CF4"/>
<path opacity="0.1" d="M491 211H466V160H479.528C486.53 176.079 490.978 193.725 491 211Z" fill="#298CF4"/>
<path opacity="0.1" d="M308 104H293V123H308V104Z" fill="#298CF4"/>
<path opacity="0.1" d="M308 144H293V148H308V144Z" fill="#298CF4"/>
<path opacity="0.1" d="M308 150H293V163H308V150Z" fill="#298CF4"/>
<path opacity="0.1" d="M308 184H293V203H308V184Z" fill="#298CF4"/>
<path opacity="0.1" d="M308 224H293V244H308V224Z" fill="#298CF4"/>
<path opacity="0.1" d="M308.539 279.332C308.696 279.332 308.848 279.332 309 279.359H308.539V284H293V264H308.539V279.332Z" fill="#298CF4"/>
<path opacity="0.1" d="M308 304V319C302.985 318.576 297.985 318 293 317.271V304H308Z" fill="#298CF4"/>
<path opacity="0.1" d="M234 210H170V211H234V210Z" fill="#298CF4"/>
<path opacity="0.1" d="M234 213H170V219H234V213Z" fill="#298CF4"/>
<path opacity="0.1" d="M234 237H170V246H234V237Z" fill="#298CF4"/>
<path opacity="0.1" d="M234 263V272H183.858C181.681 270.295 179.53 268.545 177.406 266.749C175.938 265.507 174.482 264.233 173 263H234Z" fill="#298CF4"/>
<path opacity="0.1" d="M234 290.014V299H228.657C222.654 296.25 216.768 293.25 211 290L234 290.014Z" fill="#298CF4"/>
<path opacity="0.1" d="M358 156H345V169H358V156Z" fill="#298CF4"/>
<path opacity="0.1" d="M85 97H72V110H85V97Z" fill="#298CF4"/>
<path opacity="0.1" d="M85 127H72V139H85V127Z" fill="#298CF4"/>
<path opacity="0.1" d="M85 156H72V168H85V156Z" fill="#298CF4"/>
<path opacity="0.1" d="M85 185H72V198H85V185Z" fill="#298CF4"/>
<path opacity="0.1" d="M85 214H72V227H85V214Z" fill="#298CF4"/>
<path opacity="0.1" d="M85 244H72V256H85V244Z" fill="#298CF4"/>
<path opacity="0.1" d="M406 156H393V169H406V156Z" fill="#298CF4"/>
<path opacity="0.1" d="M358 187H345V200H358V187Z" fill="#298CF4"/>
<path opacity="0.1" d="M406 187H393V200H406V187Z" fill="#298CF4"/>
<path opacity="0.1" d="M358 218H345V231H358V218Z" fill="#298CF4"/>
<path opacity="0.1" d="M406 218H393V231H406V218Z" fill="#298CF4"/>
<path opacity="0.1" d="M358 249H345V262H358V249Z" fill="#298CF4"/>
<path opacity="0.1" d="M406 249H393V262H406V249Z" fill="#298CF4"/>
<path opacity="0.1" d="M358 281H345V293H358V281Z" fill="#298CF4"/>
<path opacity="0.1" d="M406 281H393V293H406V281Z" fill="#298CF4"/>
<path opacity="0.1" d="M345 320V312H358V318.862L345 320Z" fill="#298CF4"/>
<path opacity="0.1" d="M9 132V140H52V132H9ZM13.2854 139.498H9.77756V132.492H13.3119L13.2854 139.498ZM17.5664 139.498H14.0321V132.492H17.5664V139.498ZM21.8386 139.498H18.3042V132.492H21.8386V139.498ZM26.1196 139.498H22.5896V132.492H26.124L26.1196 139.498ZM30.3962 139.498H26.8618V132.492H30.3962V139.498ZM34.6772 139.498H31.1428V132.492H34.6772V139.498ZM38.9582 139.498H35.4238V132.492H38.9582V139.498ZM43.2348 139.498H39.7004V132.492H43.2348V139.498ZM47.5114 139.498H43.977V132.492H47.5114V139.498ZM51.7879 139.498H48.2536V132.492H51.7879V139.498Z" fill="#298CF4"/>
<path opacity="0.1" d="M9 153V161H52V153H9ZM13.2854 160.494H9.77756V153.506H13.3119L13.2854 160.494ZM17.5664 160.494H14.0321V153.506H17.5664V160.494ZM21.8386 160.494H18.3042V153.506H21.8386V160.494ZM26.1196 160.494H22.5896V153.506H26.124L26.1196 160.494ZM30.3962 160.494H26.8618V153.506H30.3962V160.494ZM34.6772 160.494H31.1428V153.506H34.6772V160.494ZM38.9582 160.494H35.4238V153.506H38.9582V160.494ZM43.2348 160.494H39.7004V153.506H43.2348V160.494ZM47.5114 160.494H43.977V153.506H47.5114V160.494ZM51.7879 160.494H48.2536V153.506H51.7879V160.494Z" fill="#298CF4"/>
<path opacity="0.1" d="M9 174V182H52V174H9ZM13.2854 181.48H9.77756V174.501H13.3119L13.2854 181.48ZM17.5664 181.48H14.0321V174.501H17.5664V181.48ZM21.8386 181.48H18.3042V174.501H21.8386V181.48ZM26.1196 181.48H22.5896V174.501H26.124L26.1196 181.48ZM30.3962 181.48H26.8618V174.501H30.3962V181.48ZM34.6772 181.48H31.1428V174.501H34.6772V181.48ZM38.9582 181.48H35.4238V174.501H38.9582V181.48ZM43.2348 181.48H39.7004V174.501H43.2348V181.48ZM47.5114 181.48H43.977V174.501H47.5114V181.48ZM51.7879 181.48H48.2536V174.501H51.7879V181.48Z" fill="#298CF4"/>
<path opacity="0.1" d="M9 195V203H52V195H9ZM13.2854 202.503H9.77756V195.497H13.3119L13.2854 202.503ZM17.5664 202.503H14.0321V195.497H17.5664V202.503ZM21.8386 202.503H18.3042V195.497H21.8386V202.503ZM26.1196 202.503H22.5896V195.497H26.124L26.1196 202.503ZM30.3962 202.503H26.8618V195.497H30.3962V202.503ZM34.6772 202.503H31.1428V195.497H34.6772V202.503ZM38.9582 202.503H35.4238V195.497H38.9582V202.503ZM43.2348 202.503H39.7004V195.497H43.2348V202.503ZM47.5114 202.503H43.977V195.497H47.5114V202.503ZM51.7879 202.503H48.2536V195.497H51.7879V202.503Z" fill="#298CF4"/>
<path opacity="0.1" d="M9 216C9.17305 216.754 9.36828 217.507 9.57238 218.251V216.502H13.1221V223.507H11.223C11.2807 223.67 11.3384 223.847 11.396 224H52V216H9ZM17.4305 223.507H13.8808V216.502H17.4305V223.507ZM21.7212 223.507H18.1715V216.502H21.7212V223.507ZM26.0207 223.507H22.4622V216.502H26.0119L26.0207 223.507ZM30.3159 223.507H26.7662V216.502H30.3159V223.507ZM34.6154 223.507H31.0657V216.502H34.6154V223.507ZM38.915 223.507H35.3653V216.502H38.915V223.507ZM43.2101 223.507H39.6604V216.502H43.2101V223.507ZM47.5052 223.507H43.9555V216.502H47.5052V223.507ZM51.8003 223.507H48.2506V216.502H51.8003V223.507Z" fill="#298CF4"/>
<path opacity="0.1" d="M19 237C19.111 237.158 19.2175 237.335 19.3329 237.493H21.6812V240.86C21.9342 241.195 22.1828 241.53 22.4403 241.845V237.473H25.9915V244.507H24.5533C24.6953 244.67 24.8329 244.842 24.9972 245H52V237H19ZM30.2797 244.507H26.7284V237.503H30.2797V244.507ZM34.5811 244.507H31.0299V237.503H34.5811V244.507ZM38.8826 244.507H35.3313V237.503H38.8826V244.507ZM43.1796 244.507H39.6283V237.503H43.1796V244.507ZM47.4766 244.507H43.9253V237.503H47.4766V244.507ZM51.7736 244.507H48.2224V237.503H51.7736V244.507Z" fill="#298CF4"/>
<path opacity="0.1" d="M43 259C43.3907 259.211 43.7901 259.406 44.1937 259.617V259.414H47.6288V261.242L48.3588 261.562V259.414H51.7939V262.927C51.8598 262.958 51.9288 262.982 52 263V259H43Z" fill="#298CF4"/>
<path opacity="0.1" d="M335.973 148.316H336H335.973ZM308.644 279H309.087H308.644ZM280.129 212.507C280.214 212.79 280.285 213.074 280.364 213.353C280.293 213.074 280.218 212.79 280.129 212.507ZM335.973 148.303H336H335.973ZM68 82V83.8907H87.8185V82H68ZM308.644 279H309.087H308.644ZM280.129 212.507C280.214 212.79 280.285 213.074 280.364 213.353C280.293 213.074 280.218 212.79 280.129 212.507ZM335.973 148.303H336H335.973ZM308.644 278.987H309.087H308.644ZM280.129 212.507C280.214 212.79 280.285 213.074 280.364 213.353C280.293 213.074 280.218 212.79 280.129 212.507Z" fill="#298CF4"/>
<path d="M205.799 168.67C205.799 168.67 204.047 168.426 204.047 165.88C204.047 163.333 202.793 158.577 202.793 158.577C202.793 158.555 201.709 150.293 200.21 148.98C198.712 147.667 196.787 139.956 196.787 139.956C196.787 139.956 196.458 135.772 195.786 134.871C195.115 133.971 194.208 131.766 192.87 128.62C191.531 125.474 185.952 123.296 185.952 123.296C185.952 123.296 175.864 117.457 173.005 115.554C172.745 115.398 172.502 115.215 172.28 115.008C171.782 114.356 169.612 114.343 169.612 114.343C169.386 112.914 169.168 111.273 169.097 109.786C169.097 109.627 169.097 109.467 169.074 109.307C172.262 107.427 174.663 104.462 175.837 100.957C175.89 100.789 175.935 100.611 175.984 100.443C176.175 100.38 176.35 100.278 176.5 100.143C176.649 100.009 176.768 99.8449 176.851 99.6617C177.108 99.0893 177.113 98.4194 177.433 97.887C177.807 97.257 178.518 96.9198 179.078 96.4451C180.492 95.2471 180.856 93.2284 180.79 91.3916C180.745 89.9053 180.505 88.4057 180.599 86.9283L180.625 86.5556C180.652 86.3338 180.683 86.1119 180.723 85.899C180.941 84.7987 181.417 83.7605 181.683 82.6691C181.95 81.5776 181.977 80.3486 181.354 79.4081C180.443 78.0282 178.545 77.7532 176.877 77.6112C174.988 77.4515 173.298 77.66 172.089 76.0938C171.523 75.2753 170.886 74.5077 170.186 73.8001C169.937 73.5693 167.518 72.0964 167.518 71.9988C165.158 70.9077 162.482 70.7029 159.982 71.422C158.728 71.7858 157.546 72.3803 156.274 72.6776C153.531 73.3253 150.374 72.6243 148.045 74.1905C146.746 75.0778 145.968 76.4887 145.239 77.8641C144.646 78.9969 144.045 80.1283 143.434 81.2582C142.451 83.1172 141.451 85.0072 141.038 87.0658C140.951 87.5138 140.897 87.9676 140.878 88.4235V88.4457C140.878 88.6098 140.878 88.774 140.878 88.9381V89.1467C140.878 89.3019 140.878 89.4528 140.904 89.5903C140.931 89.7279 140.926 89.7722 140.94 89.8654C140.953 89.9586 140.975 90.1671 141.002 90.3091C141.029 90.451 141.082 90.6995 141.135 90.8947C141.158 90.979 141.189 91.0589 141.215 91.1387C141.26 91.2896 141.313 91.436 141.371 91.5824C141.402 91.6578 141.433 91.7377 141.469 91.8131C141.536 91.9684 141.616 92.1193 141.696 92.2568C141.731 92.3189 141.758 92.3766 141.793 92.4343C141.917 92.6406 142.054 92.8391 142.202 93.0288C143.154 94.2134 144.554 94.9676 145.59 96.0768C145.59 96.1212 145.59 96.1655 145.59 96.2055C145.59 96.3297 145.59 96.4495 145.59 96.5737C145.645 99.0474 146.305 101.47 147.512 103.631C148.72 105.793 150.438 107.627 152.517 108.974C152.517 109.143 152.54 109.316 152.548 109.485C152.635 110.802 152.619 112.123 152.5 113.438C152.318 113.225 152.092 113.055 151.836 112.942C151.581 112.828 151.303 112.773 151.023 112.781C150.832 112.772 150.641 112.788 150.454 112.83L150.414 112.799V112.839C149.436 113.078 148.231 114.094 147.08 116.983C147.08 116.983 143.576 120.922 140.909 120.758C138.241 120.594 131.487 124.858 131.487 124.858C131.487 124.858 124.898 129.126 123.485 133.474C122.694 135.939 121.747 138.352 120.648 140.697L112.503 157.445L111 170.733C111 170.733 111.831 176.643 111.667 177.544C111.502 178.444 115.086 186.568 115.086 186.568C115.086 186.568 126.926 207.327 131.763 208.392L132.11 208.148C132.317 208.256 132.536 208.338 132.763 208.392L133.759 207.691C133.819 208.473 133.794 209.258 133.684 210.034C133.017 212.084 133.933 225.46 135.098 228.082C136.263 230.704 135.849 265.085 135.849 265.085L135.685 268.119C135.685 268.119 135.685 268.217 135.725 268.385L135.685 269.104L135.805 269.166C135.929 270.129 135.889 271.106 135.685 272.055C135.267 273.386 135.098 277.148 135.098 277.148C135.098 277.148 131.768 298.391 133.346 302.659C134.924 306.927 136.267 311.604 136.267 311.604C136.267 311.604 137.934 316.928 136.347 317.837C134.76 318.747 130.247 320.273 131.176 322.491C132.021 324.541 135.227 330.034 135.702 330.837L135.662 331.258L135.009 338.326C135.115 339.259 135.368 340.17 135.76 341.023C136.476 342.563 137.868 344.16 140.513 343.987C140.958 343.956 141.473 343.903 141.971 343.836C146.813 343.188 152.775 341.032 152.775 341.032C152.466 340.836 152.182 340.602 151.93 340.336C151.692 340.106 151.504 339.83 151.376 339.525C151.249 339.219 151.185 338.892 151.188 338.561C151.259 337.274 148.845 331.143 148.245 329.634C148.151 329.417 148.102 329.293 148.102 329.293C148.102 329.293 153.607 323.552 152.691 318.463C152.691 318.463 146.6 314.913 148.605 312.966C150.61 311.018 154.193 305.423 154.193 305.423C154.193 305.423 154.358 284.504 154.193 281.381C154.022 279.213 154.125 277.032 154.5 274.89C154.567 274.566 154.647 274.251 154.731 273.94C157.505 274.353 160.304 274.565 163.108 274.575C164.13 274.575 165.171 274.575 166.22 274.513C166.22 274.808 166.233 275.128 166.26 275.471C166.491 280.653 166.923 289.739 167.274 293.116C167.772 297.956 170.524 311 170.524 311C170.524 311 165.273 314.363 171.44 322.651C171.44 322.651 171.44 325.655 171.031 326.089C170.594 327.511 170.242 328.957 169.977 330.42C169.719 331.981 169.612 333.561 170.03 334.382C171.031 336.343 177.033 336.183 177.033 336.183L177.18 336.156C178.313 336.039 179.458 336.148 180.549 336.477C181.639 336.805 182.654 337.346 183.533 338.069C185.814 339.896 194.47 339.093 199.156 338.512C200.993 338.281 202.22 338.069 202.22 338.069C202.279 337.861 202.3 337.645 202.282 337.43C202.233 336.281 201.331 333.76 195.213 331.511C195.213 331.511 189.46 327.651 189.54 324.288H189.42H188.753C189.237 324.261 189.549 324.288 189.549 324.288C189.549 324.288 187.294 316.08 188.215 315.415C189.135 314.749 186.379 305.654 186.379 305.654C186.379 305.654 184.8 290.392 184.716 289.322C184.719 288.405 184.859 287.493 185.129 286.616L184.716 278.248C184.716 278.248 184.636 275.466 184.716 274.561C184.702 273.776 184.638 272.992 184.524 272.214C184.484 271.904 184.444 271.58 184.4 271.26C186.556 270.715 187.957 270.209 187.957 270.209L187.708 241.082C189.54 237.533 189.878 229.746 189.869 224.222C189.869 220.673 189.709 218.047 189.709 218.047L192.212 213.969C192.212 213.969 192.79 209.089 191.874 208.02C191.469 207.536 191.652 207.035 191.985 206.622C192.158 206.485 192.341 206.36 192.532 206.249C192.532 206.249 192.505 206.209 192.474 206.152C192.649 206.006 192.835 205.874 193.03 205.757C193.03 205.757 192.141 204.381 192.936 203.8C193.683 204.306 194.35 204.688 194.857 204.998C194.822 205.322 194.786 205.508 194.786 205.508L194.999 205.065C195.488 205.34 195.786 205.508 195.786 205.508C195.786 205.508 199.708 197.713 199.623 196.564C199.539 195.415 202.291 190.574 202.291 190.574C202.291 190.574 202.624 188.032 204.127 186.967C205.63 185.903 205.292 178.187 205.292 178.187C205.292 178.187 205.71 174.167 206.71 172.526C207.711 170.884 205.799 168.67 205.799 168.67ZM130.767 165.25L130.843 167.109C130.398 166.394 130.078 165.88 130.078 165.88L130.767 165.25Z" fill="url(#paint0_linear)"/>
<path d="M196 201.857L195.072 206C195.072 206 187.64 202.024 186.3 196.971C184.96 191.918 188.543 190 188.543 190L195.467 193.076L196 201.857Z" fill="white"/>
<path opacity="0.1" d="M196 201.857L195.072 206C195.072 206 187.64 202.024 186.3 196.971C184.96 191.918 188.543 190 188.543 190L195.467 193.076L196 201.857Z" fill="black"/>
<path d="M153 341.067C153 341.067 146.051 343.661 141.273 343.987C138.736 344.159 137.403 342.58 136.717 341.059C136.342 340.213 136.1 339.312 136 338.39L136.621 331.4L136.951 327.677L147.102 325L148.539 329.463L148.674 329.803C149.252 331.294 151.567 337.358 151.497 338.624C151.494 338.948 151.556 339.269 151.678 339.569C151.801 339.868 151.981 340.139 152.21 340.366C152.443 340.633 152.708 340.869 153 341.067Z" fill="white"/>
<path d="M200.994 337.217C201.012 337.434 200.991 337.651 200.931 337.86C200.931 337.86 185.688 340.425 182.57 337.86C181.691 337.11 180.666 336.555 179.562 336.228C178.457 335.902 177.297 335.812 176.156 335.964C176.156 335.964 170.258 336.126 169.274 334.167C168.864 333.345 168.971 331.75 169.225 330.177C169.484 328.704 169.829 327.247 170.258 325.815L170.494 325.626L171.898 324.49L188.325 324H188.45C188.37 327.387 194.027 331.274 194.027 331.274C200.036 333.52 200.923 336.058 200.994 337.217Z" fill="white"/>
<path opacity="0.1" d="M200.995 337.182C201.011 337.402 200.988 337.624 200.928 337.837C200.928 337.837 185.688 340.454 182.57 337.837C181.691 337.073 180.667 336.506 179.563 336.173C178.459 335.84 177.299 335.748 176.159 335.903C176.159 335.903 170.256 336.068 169.276 334.07C168.866 333.226 168.969 331.604 169.223 330C171.495 330.234 175.081 330.816 176.489 332.204C178.618 334.317 182.227 336.425 184.441 336.59C186.174 336.705 196.54 337.044 200.995 337.182Z" fill="black"/>
<path opacity="0.1" d="M153 340.752C153 340.752 145.743 343.624 140.753 343.986C138.105 344.176 136.712 342.428 136 340.738C137.846 341.407 140.409 342.11 141.756 341.465C143.352 340.703 149.013 340.21 152.188 340C152.43 340.285 152.702 340.537 153 340.752Z" fill="black"/>
<path d="M163.538 130.485C157.813 128.22 150.449 120.738 152.287 117.242C152.696 116.36 152.939 115.408 153.003 114.435C153.121 113.114 153.139 111.786 153.055 110.462C152.926 108.294 152.67 106.137 152.287 104C152.287 104 170.16 104.411 169.12 107.09C168.816 107.876 168.768 109.24 168.851 110.767C168.933 112.294 169.15 114.02 169.375 115.481C169.688 117.485 170 119.012 170 119.012C170 119.012 168.907 120.57 168.265 120.654C167.623 120.738 171.752 133.711 163.538 130.485Z" fill="#FFB9B9"/>
<path opacity="0.1" d="M148 329.385L147.866 329.522C142.538 323.522 136.095 331 136.095 331L136 330.843L136.329 327.444L146.435 325L147.866 329.075L148 329.385Z" fill="black"/>
<path opacity="0.1" d="M189 324.602C189 324.602 185.032 324.497 182.916 326.837C180.8 329.178 170.573 327.345 171.014 326.837C171.144 326.586 171.223 326.297 171.243 325.998L172.632 324.602L188.89 324C188.952 324.37 189 324.602 189 324.602Z" fill="black"/>
<path d="M154.956 272.789C154.667 273.526 154.447 274.291 154.3 275.072C153.941 277.21 153.841 279.387 154.003 281.551C154.163 284.666 154.003 305.541 154.003 305.541C154.003 305.541 150.594 311.108 148.693 313.071C146.792 315.033 152.572 318.558 152.572 318.558C153.434 323.631 148.21 329.362 148.21 329.362C142.9 322.732 136.478 331 136.478 331C136.478 331 132.986 324.77 132.116 322.545C131.245 320.32 135.525 318.78 137.029 317.877C138.534 316.973 136.956 311.647 136.956 311.647C136.956 311.647 135.685 306.979 134.176 302.72C132.667 298.461 135.84 277.261 135.84 277.261C135.84 277.261 136.004 273.496 136.396 272.184C136.594 271.236 136.633 270.261 136.512 269.3C136.486 268.975 136.456 268.704 136.435 268.521C136.413 268.339 136.396 268.254 136.396 268.254L136.456 268.147L138.611 264C138.611 264 155.99 270.177 154.956 272.789Z" fill="#298CF4"/>
<path d="M189 324.28C189 324.28 184.991 324.195 182.854 326.068C180.716 327.942 170.383 326.48 170.828 326.068C171.273 325.657 171.238 322.612 171.238 322.612C165.176 314.305 170.347 310.934 170.347 310.934C170.347 310.934 167.639 297.857 167.149 293.006C166.806 289.617 166.383 280.51 166.156 275.31C166.058 273.074 166 271.536 166 271.536L170.953 270.535L171.59 270.405L183.535 268C183.535 268 183.865 270.235 184.087 272.064C184.198 272.845 184.261 273.632 184.274 274.42C184.194 275.314 184.274 278.113 184.274 278.113L184.68 286.505C184.415 287.385 184.278 288.299 184.274 289.219C184.355 290.288 185.909 305.587 185.909 305.587C185.909 305.587 188.613 314.717 187.691 315.374C186.769 316.031 189 324.28 189 324.28Z" fill="#298CF4"/>
<path opacity="0.1" d="M168.956 107.113C168.65 107.904 168.602 109.278 168.685 110.817C166.273 112.295 163.501 113.051 160.686 112.997C157.872 112.944 155.129 112.083 152.773 110.515C152.644 108.329 152.385 106.154 152 104C152 104 170.004 104.405 168.956 107.113Z" fill="black"/>
<path d="M175.993 97.1295C175.997 98.6959 175.748 100.253 175.257 101.742C174.159 105.077 171.907 107.921 168.899 109.769C165.891 111.617 162.322 112.352 158.821 111.842C155.32 111.333 152.113 109.613 149.767 106.986C147.422 104.359 146.088 100.994 146.002 97.4859C146.002 97.3642 146.002 97.2512 146.002 97.1295C145.968 95.1549 146.331 93.1934 147.069 91.3594C147.808 89.5253 148.907 87.8554 150.303 86.4471C151.699 85.0388 153.364 83.9203 155.201 83.1568C157.037 82.3932 159.009 82 161 82C162.991 82 164.963 82.3932 166.799 83.1568C168.636 83.9203 170.301 85.0388 171.697 86.4471C173.093 87.8554 174.192 89.5253 174.931 91.3594C175.669 93.1934 176.032 95.1549 175.998 97.1295H175.993Z" fill="#FFB9B9"/>
<path opacity="0.1" d="M163.538 130.502C157.813 128.315 150.449 121.088 152.287 117.712C152.696 116.859 152.939 115.94 153.003 115L160.84 121.331L165.689 125.241L169.375 116.015C169.688 117.95 170 119.425 170 119.425C170 119.425 168.907 120.93 168.265 121.011C167.623 121.092 171.752 133.619 163.538 130.502Z" fill="black"/>
<path d="M184 159.956L177.311 272.428L168.588 273L146 207.784L149.706 130.358L150.486 114L160.53 122.257L165.49 126.325L169.368 116.445L176.58 122.736L184 159.956Z" fill="#298CF4"/>
<path opacity="0.1" d="M154.955 272.725C154.659 273.46 154.435 274.222 154.285 275C147.98 274.019 141.857 272.092 136.119 269.283L136 269.221L136.04 268.506L136.062 268.134L138.263 264C138.263 264 156.011 270.121 154.955 272.725Z" fill="black"/>
<path opacity="0.1" d="M171 275.41C169.396 275.702 167.778 275.898 166.153 276C166.057 273.659 166 272.049 166 272.049L170.873 271L171 275.41Z" fill="black"/>
<path opacity="0.1" d="M184 272.498C180.959 273.413 176.264 274.443 172.06 273.799L172 270.662L183.47 268C183.47 268 183.786 270.449 184 272.498Z" fill="black"/>
<path opacity="0.1" d="M171 274.342C152.976 277.448 136.469 268.543 136.469 268.543L136.627 265.526C136.627 265.526 137.036 231.32 135.901 228.698C134.767 226.075 133.884 212.777 134.525 210.736C135.167 208.695 132.182 178.088 132.182 178.088L131.699 165.664L114 158.427L121.913 141.779C122.982 139.445 123.901 137.044 124.665 134.591C126.041 130.269 132.429 126.023 132.429 126.023C132.429 126.023 138.979 121.781 141.568 121.941C144.157 122.101 147.551 118.187 147.551 118.187C150.057 111.74 152.325 114.659 152.325 114.659C152.325 114.966 152.325 114.659 152.202 115.613C151.323 122.691 166.419 145.054 166.635 145.449L168.072 180.795L169.527 225.525L171 274.342Z" fill="black"/>
<path d="M171 274.343C152.664 277.448 135.866 268.544 135.866 268.544L136.032 265.527C136.032 265.527 136.448 231.327 135.289 228.705C134.131 226.084 133.237 212.788 133.894 210.747C134.552 208.706 131.51 178.104 131.51 178.104L131.014 165.682L113 158.42L121.05 141.775C122.135 139.44 123.07 137.039 123.85 134.588C125.245 130.267 131.747 126.021 131.747 126.021C131.747 126.021 138.411 121.78 141.041 121.939C143.67 122.099 147.127 118.186 147.127 118.186C149.681 111.74 152.494 114.659 152.494 114.659C152.494 114.965 152.226 115.103 152.369 115.613C154.337 122.476 166.34 145.049 166.559 145.443L168.039 180.784L169.52 225.507L171 274.343Z" fill="white"/>
<path opacity="0.1" d="M166 146C164.015 145.195 153.501 133.522 153.501 133.522V130.865C153.118 129.99 150.845 130.524 149 131.137L149.792 115L150.692 115.727C152.664 122.493 165.77 145.61 166 146Z" fill="black"/>
<path d="M167 145C165.011 144.195 154.5 132.522 154.5 132.522V129.865C154.117 128.99 151.845 129.524 150 130.137L150.796 114L151.696 114.727C153.672 121.493 166.78 144.615 167 145Z" fill="white"/>
<path opacity="0.1" d="M136.965 204.303C137.201 204.303 149.193 203 149.193 203C149.193 203 156.454 217.759 155.978 221.35C155.502 224.941 154.639 228.12 151.719 227.557C148.798 226.994 136 228 136 228L136.965 204.303Z" fill="black"/>
<path d="M136.013 203.303C136.261 203.303 148.852 202 148.852 202C148.852 202 156.472 216.763 155.977 220.35C155.481 223.937 154.567 227.12 151.505 226.557C148.443 225.994 135 227 135 227L136.013 203.303Z" fill="white"/>
<path d="M145.629 196C145.629 196 156.755 202.372 156.993 204.317C157.231 206.263 151.331 203.467 150.056 203.13C149.217 202.914 148.363 202.772 147.502 202.705L139 202.95L145.629 196Z" fill="#FFB9B9"/>
<path opacity="0.1" d="M163 147C163.552 147 164 146.552 164 146C164 145.448 163.552 145 163 145C162.448 145 162 145.448 162 146C162 146.552 162.448 147 163 147Z" fill="black"/>
<path d="M163 146C163.552 146 164 145.552 164 145C164 144.448 163.552 144 163 144C162.448 144 162 144.448 162 145C162 145.552 162.448 146 163 146Z" fill="#3F3D56"/>
<path opacity="0.1" d="M165 199C165.552 199 166 198.328 166 197.5C166 196.672 165.552 196 165 196C164.448 196 164 196.672 164 197.5C164 198.328 164.448 199 165 199Z" fill="black"/>
<path d="M165 198C165.552 198 166 197.552 166 197C166 196.448 165.552 196 165 196C164.448 196 164 196.448 164 197C164 197.552 164.448 198 165 198Z" fill="#3F3D56"/>
<path opacity="0.1" d="M164 173C164.552 173 165 172.552 165 172C165 171.448 164.552 171 164 171C163.448 171 163 171.448 163 172C163 172.552 163.448 173 164 173Z" fill="black"/>
<path d="M164 172C164.552 172 165 171.552 165 171C165 170.448 164.552 170 164 170C163.448 170 163 170.448 163 171C163 171.552 163.448 172 164 172Z" fill="#3F3D56"/>
<path d="M191.36 202.415C191.36 202.415 192.177 203.645 191.36 204.22C190.543 204.795 191.44 206.186 191.44 206.186C191.44 206.186 189.403 207.385 190.299 208.463C191.196 209.542 190.628 214.413 190.628 214.413L188.178 218.486C188.178 218.486 188.324 221.111 188.333 224.659C188.333 230.194 188.009 237.976 186.216 241.523L186.465 270.63C186.465 270.63 177.885 273.777 170.704 272.818L169.639 226.112C169.639 226.112 171.193 199.625 171.765 194.545C172.1 191.907 172.237 189.248 172.173 186.589C172.173 186.589 171.929 178.639 171.108 174.948C171.108 174.948 170.221 158.962 170.132 154.536C170.092 152.419 170.203 146.242 170.327 140.368C170.465 133.946 170.62 127.89 170.62 127.89L169 115.018C169 115.018 170.62 114.854 171.108 115.509C171.327 115.714 171.565 115.897 171.818 116.057C174.614 117.955 184.494 123.794 184.494 123.794C184.494 123.794 189.962 125.978 191.271 129.106C192.581 132.235 193.49 134.454 194.125 135.346C194.76 136.237 195.106 140.426 195.106 140.426C195.106 140.426 196.988 148.137 198.457 149.442C199.926 150.748 201 159.056 201 159.056L188.018 169.306C188.018 169.306 186.877 186.358 186.633 187.017C186.389 187.677 191.36 202.415 191.36 202.415Z" fill="white"/>
<path d="M192.228 202.471C192.228 202.471 193.053 203.7 192.228 204.274C191.404 204.849 192.305 206.238 192.305 206.238C192.305 206.238 190.251 207.449 191.152 208.526C192.053 209.604 191.485 214.47 191.485 214.47L188.998 218.54C188.998 218.54 189.147 221.162 189.16 224.706C189.16 230.236 188.832 238.01 187.011 241.554L187.259 270.633C187.259 270.633 178.537 273.776 171.257 272.819L170.18 226.158C170.18 226.158 171.757 199.697 172.338 194.622C172.679 191.987 172.816 189.33 172.748 186.674C172.748 186.674 172.5 178.731 171.672 175.045C171.672 175.045 170.771 159.074 170.676 154.653C170.635 152.538 170.752 146.367 170.874 140.499C171.014 134.083 171.171 128.032 171.171 128.032L169 115C169 115 171.171 115 171.672 115.663C171.891 115.871 172.133 116.054 172.392 116.211C175.231 118.108 185.263 123.94 185.263 123.94C185.263 123.94 190.809 126.122 192.138 129.248C193.467 132.373 194.391 134.59 195.04 135.481C195.688 136.371 196.031 140.557 196.031 140.557C196.031 140.557 197.941 148.259 199.432 149.564C200.923 150.868 202 159.15 202 159.15L188.823 169.39C188.823 169.39 187.665 186.425 187.412 187.084C187.16 187.743 192.228 202.471 192.228 202.471Z" fill="white"/>
<path opacity="0.1" d="M176.375 132.148L177.467 135.644L171.72 142C171.848 135.463 171.993 129.288 171.993 129.288L170 116C170 116 171.993 116 172.452 116.676C172.653 116.887 172.875 117.073 173.113 117.23L178 132.711L176.375 132.148Z" fill="black"/>
<path d="M176.168 131.148L177.4 134.644L170.939 141C171.083 134.458 171.245 128.288 171.245 128.288L169 115C169 115 171.245 115 171.757 115.676C171.985 115.887 172.234 116.074 172.501 116.235L178 131.711L176.168 131.148Z" fill="white"/>
<path opacity="0.1" d="M175.993 97.5198C175.997 99.1266 175.748 100.724 175.257 102.251C175.174 102.264 175.09 102.26 175.008 102.239C174.927 102.219 174.851 102.182 174.784 102.13C174.67 98.1173 172.728 94.3494 170.339 91.1433C169.668 90.1753 168.855 89.3181 167.928 88.6016C166.991 87.8856 165.825 87.5502 164.658 87.6608C163.343 87.8436 162.181 88.7533 160.853 88.8692C159.1 89.0163 157.531 87.7812 155.79 87.7187C155.083 87.7256 154.385 87.8858 153.743 88.1888C153.102 88.4917 152.531 88.9304 152.069 89.4756C151.155 90.5758 150.475 91.8574 150.074 93.2391C149.385 95.3341 149.01 97.5228 148.961 99.7315C148.939 100.98 148.821 102.545 147.681 103C147.767 102.082 147.664 101.155 147.38 100.28C147.095 99.4038 146.635 98.5977 146.029 97.9122L146.002 97.8854C146.002 97.7606 146.002 97.6446 146.002 97.5198C145.968 95.4943 146.331 93.4822 147.069 91.6008C147.808 89.7195 148.907 88.0065 150.303 86.5619C151.699 85.1172 153.364 83.9698 155.201 83.1866C157.037 82.4034 159.009 82 161 82C162.991 82 164.963 82.4034 166.799 83.1866C168.636 83.9698 170.301 85.1172 171.697 86.5619C173.093 88.0065 174.192 89.7195 174.931 91.6008C175.669 93.4822 176.032 95.4943 175.998 97.5198H175.993Z" fill="black"/>
<path d="M167.013 72.9926C164.716 71.9099 162.102 71.7051 159.665 72.4168C158.44 72.78 157.286 73.369 156.043 73.6658C153.39 74.3081 150.295 73.6127 148.018 75.1673C146.753 76.0532 145.993 77.4529 145.285 78.8127L143.517 82.1878C142.553 84.0348 141.58 85.9128 141.178 87.9458C140.775 89.9789 141.018 92.2556 142.305 93.89C143.242 95.0814 144.626 95.83 145.643 96.9506C146.253 97.6322 146.715 98.4326 147.001 99.3014C147.287 100.17 147.391 101.089 147.306 102C148.46 101.557 148.571 99.998 148.597 98.7578C148.646 96.5638 149.025 94.3898 149.72 92.3087C150.124 90.9359 150.809 89.6626 151.732 88.5704C152.198 88.0293 152.774 87.5938 153.421 87.2929C154.069 86.992 154.773 86.8326 155.486 86.8252C157.255 86.8873 158.842 88.1097 160.593 87.9636C161.92 87.8528 163.096 86.9448 164.431 86.7677C165.608 86.6561 166.785 86.9894 167.73 87.7022C168.664 88.4128 169.483 89.2645 170.157 90.2269C172.571 93.4116 174.53 97.1455 174.645 101.141C175.145 101.508 175.865 101.03 176.113 100.463C176.361 99.8961 176.37 99.2317 176.683 98.6913C177.046 98.0668 177.74 97.7346 178.284 97.2651C179.664 96.0736 180.009 94.0671 179.956 92.2467C179.902 90.4263 179.549 88.5792 179.894 86.7898C180.101 85.6913 180.57 84.6637 180.827 83.5786C181.083 82.4934 181.114 81.2753 180.508 80.3408C179.624 78.9677 177.762 78.6975 176.14 78.569C174.296 78.4096 172.647 78.6133 171.47 77.0586C170.918 76.2474 170.297 75.4856 169.613 74.782C169.379 74.5517 167.013 73.09 167.013 72.9926Z" fill="#26293C"/>
<path opacity="0.1" d="M119.051 166.624L114.456 158L113 171.307C113 171.307 113.809 177.217 113.646 178.123C113.484 179.029 116.962 187.154 116.962 187.154C116.962 187.154 128.454 207.929 133.146 209L149 197.501L144.796 192.082C144.796 192.082 143.34 191.506 142.975 192.082C142.975 192.082 135.169 178.449 134.36 177.463C133.551 176.476 133.709 174.507 133.709 174.507C133.709 174.507 132.495 173.195 132.9 171.963C133.304 170.731 130.556 166.459 130.556 166.459L133.063 164.08L119.051 166.624Z" fill="black"/>
<path d="M114.669 157L113.455 157.982L112 171.294C112 171.294 112.809 177.206 112.646 178.113C112.484 179.019 115.966 187.146 115.966 187.146C115.966 187.146 127.452 207.928 132.144 209L148 197.497L143.792 192.076C143.792 192.076 142.336 191.5 141.971 192.076C141.971 192.076 134.166 178.439 133.357 177.452C132.548 176.465 132.711 174.496 132.711 174.496C132.711 174.496 131.497 173.183 131.902 171.95C132.306 170.718 129.554 166.444 129.554 166.444L132.06 164.064L114.669 157Z" fill="white"/>
<path opacity="0.1" d="M190.794 209.083C191.732 210.185 191.141 215.137 191.141 215.137L188.55 219.285C188.55 219.285 188.705 221.962 188.714 225.57L184.358 226.886C183.964 227.005 183.547 227.031 183.14 226.962C182.734 226.894 182.351 226.732 182.022 226.491C181.694 226.25 181.43 225.936 181.252 225.576C181.074 225.216 180.988 224.821 181.001 224.422L181.752 201L191.916 204.758C191.052 205.339 192 206.764 192 206.764C192 206.764 189.845 207.98 190.794 209.083Z" fill="black"/>
<path d="M190.904 208.762C191.757 209.821 191.219 214.583 191.219 214.583L188.865 218.568C188.865 218.568 189.005 221.137 189.018 224.608L184.987 225.894C184.637 226.005 184.265 226.029 183.904 225.964C183.543 225.899 183.202 225.747 182.91 225.52C182.618 225.293 182.383 224.998 182.225 224.66C182.067 224.321 181.99 223.949 182.001 223.574L182.688 201L191.927 204.61C191.138 205.169 192 206.533 192 206.533C192 206.533 190.051 207.706 190.904 208.762Z" fill="white"/>
<path d="M194 197.696C194 197.696 193.406 202.007 191.919 202.259C190.431 202.512 189.764 209.232 188.281 208.994C186.798 208.755 187.78 202.746 187.833 201.58C187.885 200.414 186.216 195.585 187.465 194.488C188.714 193.39 192.666 194.488 192.666 194.488L194 197.696Z" fill="#FFB9B9"/>
<path opacity="0.1" d="M197.817 165.253L200.893 159C200.893 159 202.116 163.766 202.116 166.312C202.116 168.857 203.826 169.107 203.826 169.107C203.826 169.107 205.7 171.341 204.712 172.966C203.724 174.592 203.325 178.639 203.325 178.639C203.325 178.639 203.649 186.361 202.182 187.429C200.715 188.496 200.41 191.046 200.41 191.046C200.41 191.046 197.715 195.893 197.8 197.045C197.884 198.197 194.051 206 194.051 206C194.051 206 195.925 196.303 185.002 192.114C185.002 192.114 184.918 188.822 185.734 187.92C186.549 187.018 187.821 186.607 187.023 182.047C186.225 177.486 186.793 172.037 186.793 170.943C186.793 169.849 189.239 163.024 189.239 163.024L197.817 165.253Z" fill="black"/>
<path d="M199.209 158L201.892 158.895C201.892 158.895 203.118 163.672 203.118 166.223C203.118 168.775 204.827 169.025 204.827 169.025C204.827 169.025 206.7 171.263 205.713 172.893C204.725 174.522 204.331 178.578 204.331 178.578C204.331 178.578 204.654 186.317 203.189 187.387C201.724 188.457 201.396 191.013 201.396 191.013C201.396 191.013 198.709 195.87 198.793 197.025C198.877 198.18 195.043 206 195.043 206C195.043 206 196.92 196.282 186.002 192.083C186.002 192.083 185.922 188.784 186.737 187.88C187.552 186.975 188.822 186.564 188.025 181.993C187.228 177.423 187.795 171.962 187.795 170.865C187.795 169.768 190.239 162.928 190.239 162.928L199.209 158Z" fill="white"/>
<path opacity="0.1" d="M140 319.588C140 319.588 143.947 316.637 146.537 318.781C149.128 320.925 140 319.588 140 319.588Z" fill="black"/>
<path opacity="0.1" d="M173 311.024C173 311.024 176.995 310.534 180.349 313.981C183.704 317.428 173 311.024 173 311.024Z" fill="black"/>
<g opacity="0.1">
<path opacity="0.1" d="M178.603 96.5492C178.058 97.0197 177.357 97.357 176.994 97.9827C176.684 98.5197 176.675 99.181 176.426 99.7579C176.178 100.335 175.455 100.805 174.954 100.441C174.839 96.4472 172.87 92.697 170.454 89.5016C169.778 88.5373 168.957 87.6839 168.02 86.9719C167.071 86.2578 165.89 85.9239 164.708 86.0355C163.377 86.2175 162.207 87.1228 160.863 87.2338C159.09 87.3847 157.498 86.1553 155.738 86.0932C155.022 86.1003 154.317 86.2604 153.668 86.5628C153.02 86.8651 152.443 87.3027 151.978 87.8462C151.052 88.939 150.365 90.2133 149.96 91.5875C149.264 93.6728 148.884 95.851 148.834 98.0493C148.807 99.2875 148.692 100.832 147.548 101.294C147.575 101.621 147.575 101.951 147.548 102.279C148.701 101.835 148.816 100.273 148.843 99.0301C148.892 96.8318 149.272 94.6535 149.969 92.5683C150.374 91.1928 151.061 89.917 151.987 88.8226C152.453 88.2806 153.03 87.8442 153.678 87.5427C154.327 87.2412 155.032 87.0814 155.747 87.074C157.52 87.1361 159.116 88.361 160.872 88.2146C162.202 88.1036 163.382 87.1938 164.716 87.0163C165.898 86.9047 167.08 87.2386 168.029 87.9527C168.966 88.6647 169.787 89.5181 170.463 90.4824C172.879 93.6734 174.848 97.4147 174.963 101.418C175.464 101.786 176.187 101.307 176.435 100.739C176.684 100.171 176.692 99.505 177.003 98.9635C177.366 98.3378 178.067 98.0049 178.612 97.5345C179.996 96.3406 180.342 94.3302 180.288 92.5062C180.288 92.4485 180.288 92.3908 180.288 92.3375C180.204 93.9175 179.783 95.5285 178.603 96.5492Z" fill="black"/>
<path opacity="0.1" d="M145.872 96.2341C144.852 95.1113 143.46 94.3613 142.525 93.1719C141.737 92.119 141.287 90.8515 141.234 89.5371C141.095 91.1796 141.553 92.8172 142.525 94.1482C143.46 95.3421 144.852 96.0921 145.872 97.2149C146.851 98.3132 147.439 99.7054 147.544 101.174C147.612 100.28 147.499 99.382 147.211 98.5332C146.924 97.6845 146.469 96.9025 145.872 96.2341Z" fill="black"/>
<path opacity="0.1" d="M181.153 82.8356C180.891 83.923 180.426 84.957 180.213 86.0532C180.087 86.7857 180.041 87.5298 180.076 88.2722C180.09 87.8493 180.136 87.428 180.213 87.0118C180.426 85.9112 180.891 84.8816 181.153 83.7943C181.305 83.1945 181.355 82.5732 181.299 81.9569C181.272 82.253 181.223 82.5466 181.153 82.8356Z" fill="black"/>
</g>
<path opacity="0.1" d="M60 338C83.7482 338 103 334.866 103 331C103 327.134 83.7482 324 60 324C36.2518 324 17 327.134 17 331C17 334.866 36.2518 338 60 338Z" fill="#298CF4"/>
<path d="M61 198H58V260H61V198Z" fill="#535461"/>
<path d="M78.9897 260.259L78.8156 263.086L78.5655 267.087L78.4628 268.75L78.2171 272.751L78.1099 274.413L77.8599 278.414L75.0373 323.789C74.9147 325.742 74.0492 327.574 72.6172 328.914C71.1852 330.253 69.2942 330.999 67.329 331H52.6538C50.6891 330.999 48.7986 330.253 47.3673 328.913C45.936 327.574 45.0715 325.741 44.9499 323.789L42.1408 278.383L41.8907 274.382L41.788 272.72L41.5379 268.719L41.4352 267.056L41.1851 263.055L41.0065 260.228C40.9754 259.684 41.0564 259.139 41.2445 258.627C41.4325 258.115 41.7237 257.647 42.1 257.251C42.4764 256.855 42.9301 256.54 43.4332 256.325C43.9363 256.11 44.4783 255.999 45.0259 256H75.0418C75.5873 256.005 76.126 256.121 76.6248 256.341C77.1235 256.561 77.5717 256.88 77.9417 257.279C78.3116 257.678 78.5955 258.148 78.7757 258.661C78.956 259.173 79.0288 259.717 78.9897 260.259Z" fill="#E6E6E6"/>
<path d="M79 263L78.7476 267H41.2524L41 263H79Z" fill="#9D9CB5"/>
<path d="M78 268L77.7606 272H42.2437L42 268H78Z" fill="#9D9CB5"/>
<path d="M78 274L77.756 278H42.2485L42 274H78Z" fill="#9D9CB5"/>
<path d="M36.913 221.258C53.2011 232.858 60 251 60 251C60 251 40.3705 250.337 24.078 238.737C7.78556 227.137 1 209 1 209C1 209 20.6206 209.659 36.913 221.258Z" fill="#1EBE9B"/>
<path d="M1 209C1 209 21.3744 220.13 27.9086 229.346C34.4428 238.562 60 251 60 251" stroke="#535461" stroke-width="2" stroke-miterlimit="10"/>
<path d="M47.4756 197.715C56.3067 204.064 60 214 60 214C60 214 49.3556 213.638 40.52 207.289C31.6844 200.94 28 191 28 191C28 191 38.64 191.362 47.4756 197.715Z" fill="#1EBE9B"/>
<path d="M28 191C28 191 39.0489 197.097 42.5911 202.142C46.1333 207.187 60 214 60 214" stroke="#535461" stroke-width="2" stroke-miterlimit="10"/>
<path d="M72.3811 213.525C62.162 224.568 60 239 60 239C60 239 74.4088 235.523 84.6189 224.475C94.8291 213.428 97 199 97 199C97 199 82.6002 202.482 72.3811 213.525Z" fill="#1EBE9B"/>
<path d="M97 199C97 199 83.6911 210.322 80.3079 218.122C76.9248 225.922 60 239 60 239" stroke="#535461" stroke-width="2" stroke-miterlimit="10"/>
<path opacity="0.1" d="M391.463 262.109C391.541 263.753 391.721 265.387 392 267C386.875 266.103 382.118 266.549 379 266.842V262L391.463 262.109Z" fill="black"/>
<path opacity="0.1" d="M437 268.574C437 268.574 429.837 268.927 421.295 269C421.054 266.734 421 264.867 421 264.867C421 264.867 425.826 258.068 434.672 265.41C435.379 265.996 436.002 266.68 436.521 267.441C436.66 267.827 436.82 268.206 437 268.574Z" fill="black"/>
<path opacity="0.1" d="M405.576 131.569L406.691 130C406.691 130 407.431 134.5 410.149 132.515C412.867 130.53 413 147.45 413 147.45L410.082 191L389 189.74L389.598 168.697L391.984 158.089L397.885 142.668L401.396 137.571L405.576 131.569Z" fill="black"/>
<path opacity="0.03" d="M423.853 135.632C423.853 135.632 415.41 151.654 416.391 157.744C417.371 163.833 420.16 170.725 418.815 172.335C418.353 172.945 417.756 173.44 417.07 173.781C416.384 174.123 415.628 174.302 414.861 174.304C413.512 174.393 409.914 176.9 409.914 177.169C409.914 177.438 406.59 177.438 403.617 178.693C400.644 179.949 396.254 180.662 396.254 180.662C396.254 180.662 387.708 180.393 386.912 181.2C386.116 182.007 385.297 186.837 387.002 190.689C388.706 194.54 390.6 197.415 392.03 197.939C393.461 198.464 402.537 195.433 409.9 194.715C417.263 193.998 425.256 188.182 425.256 188.182C425.256 188.182 434.058 185.043 435.601 179.765C437.144 174.487 433.716 145.48 433.716 145.48C433.716 145.48 431.126 131.96 423.853 135.632Z" fill="black"/>
<path opacity="0.1" d="M423.038 177.443C423.038 177.443 416.094 175.953 418.511 178.437C420.927 180.92 420.913 183.096 423.871 182.997C426.829 182.897 423.038 177.443 423.038 177.443Z" fill="black"/>
<path opacity="0.1" d="M434.71 225C434.71 225 431.991 227.072 437.193 231.848C442.395 236.625 434.71 225 434.71 225Z" fill="black"/>
<path opacity="0.1" d="M429.121 242C429.121 242.279 428.127 252.236 431.844 254.725C435.562 257.214 429.121 242 429.121 242Z" fill="black"/>
<path opacity="0.1" d="M405.887 133.011C405.327 133.86 403.725 138.206 402.388 142C401.136 141.516 400 138.431 400 138.431L406.673 129C407.357 129.934 406.908 131.483 405.887 133.011Z" fill="black"/>
<path d="M417 205H372V256H417V205Z" fill="#CCCCCC"/>
<path d="M394.811 318.349L394.009 329.27C393.973 329.764 394.043 330.261 394.215 330.726C394.387 331.191 394.657 331.614 395.006 331.966C395.356 332.319 395.777 332.593 396.242 332.77C396.706 332.947 397.203 333.024 397.7 332.994L403.329 332.654C403.589 332.638 403.843 332.565 404.073 332.441C404.302 332.316 404.501 332.142 404.656 331.932C404.81 331.722 404.916 331.481 404.967 331.226C405.017 330.97 405.01 330.707 404.947 330.454L401.822 318L394.811 318.349Z" fill="#E6E6E6"/>
<path d="M440.784 324.588C447.355 326.12 452.049 328.298 455.132 331.246C456.23 332.287 457.667 332.901 459.181 332.976C461.115 333.077 462.696 332.861 463.885 332.332H463.885C464.189 332.198 464.452 331.986 464.646 331.716C464.841 331.447 464.959 331.131 464.989 330.801C465.025 330.465 464.971 330.126 464.831 329.819C464.691 329.512 464.471 329.247 464.195 329.053L448.611 318L441.992 320.64L440.448 322.179C440.281 322.346 440.154 322.549 440.079 322.772C440.004 322.996 439.982 323.233 440.015 323.467C440.047 323.7 440.134 323.923 440.267 324.118C440.401 324.312 440.578 324.473 440.784 324.588H440.784Z" fill="#E6E6E6"/>
<path d="M420.978 150L377 149.597C377.111 143.253 378.601 137.023 381.859 131.449C383.998 127.788 383.952 123.803 383.436 120.446C382.641 115.266 384.491 109.966 388.602 106.669C391.745 104.144 395.71 102.845 399.753 103.015L400.606 103.05C403.388 103.165 406.096 103.969 408.482 105.39C410.867 106.811 412.854 108.803 414.26 111.183C415.689 113.724 416.266 116.648 415.906 119.535C415.627 122.25 416.294 124.994 417.854 127.763C420.546 133.845 421.129 141.627 420.978 150Z" fill="#2F2E41"/>
<path d="M450 318.763L441.474 321L399.955 230.017L402.55 318.763H394.024C384.913 277.01 368.464 228.823 375.859 213.61L419.973 211L450 318.763Z" fill="#298CF4"/>
<path d="M399.5 135C405.851 135 411 129.851 411 123.5C411 117.149 405.851 112 399.5 112C393.149 112 388 117.149 388 123.5C388 129.851 393.149 135 399.5 135Z" fill="#FFB9B9"/>
<path d="M410 145L390 143.833C391.96 139.372 392.743 135.076 391.961 131H406.863C406.829 134.13 408.4 139.544 410 145Z" fill="#FFB9B9"/>
<path d="M422 214.028L380 217L384.312 143.272L391.625 141.229L399.875 143.086L408.125 139L413.375 140.857L422 214.028Z" fill="#298CF4"/>
<path d="M386.74 268L358 261.457C366.546 233.251 381.942 168.725 376.972 145.73L392 139L386.74 268Z" fill="#E6E6E6"/>
<path d="M372.875 186L362 179.31L371.274 152.387C372.309 149.609 374.29 147.276 376.876 145.793L380 144L378.125 171.133L372.875 186Z" fill="#E6E6E6"/>
<path d="M446 261.871C437.036 267.106 414.63 270.025 404.792 266.368C404.068 240.824 402.648 168.569 407.205 138L423.54 144.746L422.055 164.985C414.245 182.299 436.922 242.602 446 261.871Z" fill="#E6E6E6"/>
<path d="M444.909 183L435.091 179.647L422 164.372L424.182 145L446 176.294L444.909 183Z" fill="#E6E6E6"/>
<path d="M413.069 196.956C413.235 197.634 413.681 198.224 414.31 198.595C414.939 198.966 415.7 199.089 416.426 198.936L425 197.12L423.761 192L415.186 193.816C414.46 193.97 413.83 194.387 413.433 194.976C413.036 195.565 412.905 196.277 413.069 196.956Z" fill="#FFB9B9"/>
<path d="M409.75 120C403.293 117.549 396.916 117.372 390.625 119.654L388 111H412L409.75 120Z" fill="#2F2E41"/>
<path d="M421 191L425.875 200C434.075 197.713 441.181 190.503 448 182L446.125 176L434.5 179L421 191Z" fill="#E6E6E6"/>
<path d="M418 172H416.429C416.429 151.068 411.852 136.48 407.393 136.48L407 135C410.999 135 413.549 141.071 414.984 146.164C416.929 153.069 418 162.244 418 172Z" fill="#3F3D56"/>
<path d="M383.379 167H382C382 147.879 386.044 136 392 136L391.655 137.476C387.536 137.476 383.379 146.605 383.379 167Z" fill="#3F3D56"/>
<path d="M417 177C419.209 177 421 175.209 421 173C421 170.791 419.209 169 417 169C414.791 169 413 170.791 413 173C413 175.209 414.791 177 417 177Z" fill="#3F3D56"/>
<path d="M377.333 176H376C376 170.486 378.692 166 382 166V167.538C379.427 167.538 377.333 171.334 377.333 176Z" fill="#3F3D56"/>
<path d="M389 176H387.444C387.444 171.334 385.002 167.538 382 167.538V166C385.86 166 389 170.486 389 176Z" fill="#3F3D56"/>
<path d="M388.5 178C389.328 178 390 177.328 390 176.5C390 175.672 389.328 175 388.5 175C387.672 175 387 175.672 387 176.5C387 177.328 387.672 178 388.5 178Z" fill="#3F3D56"/>
<path d="M376.5 178C377.328 178 378 177.328 378 176.5C378 175.672 377.328 175 376.5 175C375.672 175 375 175.672 375 176.5C375 177.328 375.672 178 376.5 178Z" fill="#3F3D56"/>
<path d="M358 163L367.131 164.667L388 195L376.913 192.333L358 163Z" fill="#298CF4"/>
<path d="M355.787 162C355.644 162.002 355.504 162.042 355.382 162.117C355.26 162.191 355.16 162.296 355.093 162.422C355.026 162.548 354.994 162.689 355.001 162.831C355.008 162.973 355.053 163.11 355.131 163.229L375.199 193.462C375.311 193.631 375.484 193.751 375.683 193.798L385.02 195.979C385.177 196.016 385.342 196.004 385.493 195.946C385.643 195.887 385.773 195.785 385.863 195.652C385.954 195.519 386.001 195.361 386 195.201C385.998 195.04 385.948 194.884 385.855 194.753L363.821 163.645C363.762 163.56 363.686 163.488 363.598 163.432C363.51 163.377 363.412 163.339 363.309 163.321L355.937 162.014C355.888 162.005 355.837 162 355.787 162Z" fill="#3F3D56"/>
<path d="M368 183.955L368.562 190L377.435 189.06C378.186 188.98 378.877 188.586 379.355 187.963C379.834 187.339 380.061 186.539 379.986 185.737C379.912 184.936 379.542 184.199 378.958 183.688C378.374 183.177 377.624 182.935 376.873 183.015L368 183.955Z" fill="#FFB9B9"/>
<path d="M361 183.74C361.013 185.669 361.802 187.514 363.195 188.874C364.588 190.233 366.471 190.998 368.436 191H369.92L371 182.161L362.055 179L361 183.74Z" fill="#E6E6E6"/>
<defs>
<linearGradient id="paint0_linear" x1="158.995" y1="344.009" x2="158.995" y2="71.0005" gradientUnits="userSpaceOnUse">
<stop stop-color="#808080" stop-opacity="0.25"/>
<stop offset="0.54" stop-color="#808080" stop-opacity="0.12"/>
<stop offset="1" stop-color="#808080" stop-opacity="0.1"/>
</linearGradient>
</defs>
</svg>
